
            <svg width="12" height="10" viewBox="0 0 12 10" fill="none" xmlns="http://www.w3.org/2000/svg">
                <path fill-rule="evenodd" clip-rule="evenodd" d="M0.400024 4.99999C0.400024 4.66862 0.668653 4.39999 1.00002 4.39999L9.51036 4.39999L6.18416 1.23249C5.9453 1.00281 5.93785 0.622985 6.16752 0.384122C6.3972 0.145259 6.77703 0.13781 7.01589 0.367487L11.4159 4.56749C11.5335 4.68061 11.6 4.83678 11.6 4.99999C11.6 5.1632 11.5335 5.31936 11.4159 5.43249L7.01589 9.63249C6.77703 9.86216 6.3972 9.85472 6.16753 9.61585C5.93785 9.37699 5.9453 8.99716 6.18416 8.76749L9.51036 5.59999L1.00002 5.59999C0.668653 5.59999 0.400024 5.33136 0.400024 4.99999Z" fill="#010101" />
            </svg>

