
            <svg width="24" height="23" viewBox="0 0 24 23" fill="none" xmlns="http://www.w3.org/2000/svg">
                <path fill-rule="evenodd" clip-rule="evenodd" d="M1.5 4.12885C1.5 2.47199 2.84315 1.12885 4.5 1.12885H5.87163C6.732 1.12885 7.48197 1.7144 7.69064 2.54909L8.79644 6.97228C8.97941 7.70415 8.70594 8.47439 8.10242 8.92703L6.8088 9.89724C6.67447 9.99799 6.64527 10.1455 6.683 10.2485C7.81851 13.3483 10.2805 15.8103 13.3803 16.9458C13.4833 16.9836 13.6309 16.9544 13.7316 16.82L14.7018 15.5264C15.1545 14.9229 15.9247 14.6494 16.6566 14.8324L21.0798 15.9382C21.9144 16.1469 22.5 16.8968 22.5 17.7572V19.1288C22.5 20.7857 21.1569 22.1288 19.5 22.1288H17.25C8.55151 22.1288 1.5 15.0773 1.5 6.37885V4.12885Z" stroke="#010101" stroke-width="1.5" />
            </svg>
 