
            <svg width="12" height="10" viewBox="0 0 12 10" fill="none" xmlns="http://www.w3.org/2000/svg">
                <path fill-rule="evenodd" clip-rule="evenodd" d="M0.399994 4.9998C0.399994 4.66843 0.668623 4.3998 0.999994 4.3998L9.51033 4.3998L6.18413 1.2323C5.94527 1.00263 5.93782 0.622802 6.16749 0.383939C6.39717 0.145076 6.777 0.137627 7.01586 0.367304L11.4159 4.5673C11.5335 4.68043 11.6 4.83659 11.6 4.9998C11.6 5.16301 11.5335 5.31918 11.4159 5.4323L7.01586 9.6323C6.777 9.86198 6.39717 9.85453 6.16749 9.61567C5.93782 9.37681 5.94527 8.99698 6.18413 8.7673L9.51033 5.5998L0.999994 5.5998C0.668623 5.5998 0.399994 5.33117 0.399994 4.9998Z" fill="#393939" />
            </svg>

